<svg width="108" height="24" viewBox="0 0 108 24" fill="none" xmlns="http://www.w3.org/2000/svg">
<path d="M65.3623 13.2903L68.222 18.7709H70.0918L67.2321 13.1828L65.3623 13.2903Z" fill="white" fill-opacity="0.8"/>
<path d="M70.9736 7.59927H75.1532V18.7754H76.913V7.59927H81.0925V6.41718H70.9736V7.59927Z" fill="white" fill-opacity="0.8"/>
<path d="M31.2665 18.9884C33.9062 18.9884 35.556 17.8063 35.666 15.9795C35.776 14.1526 34.7861 13.1854 32.0364 12.1108C29.7266 11.2511 28.9567 10.4989 28.9567 9.42423C28.9567 8.24213 30.0566 7.48989 31.7064 7.48989C33.0263 7.48989 34.1262 7.70482 34.7861 8.02721L35.336 6.95258C34.3461 6.52273 33.0263 6.3078 31.3765 6.3078C28.7367 6.3078 27.1969 7.70482 27.1969 9.53169C27.1969 11.3586 28.2968 12.3257 30.8265 13.2929C33.1363 14.1526 33.7962 14.6899 33.7962 15.872C33.7962 17.0541 32.6963 17.9138 30.7165 17.8063C29.7266 17.8063 28.4068 17.3765 27.6369 16.9466L27.0869 18.0213C27.7468 18.3436 29.0667 18.9884 31.2665 18.9884Z" fill="white" fill-opacity="0.8"/>
<path d="M49.9674 6.52655H47.2177L43.698 17.5952L40.1784 6.52655H37.4287V18.7773H38.7486V7.49372L42.3782 18.7773H44.6879L48.2076 7.49372V18.7773H48.4275L49.9674 14.5863V6.52655Z" fill="white" fill-opacity="0.8"/>
<path d="M68.8844 7.27688C68.1145 6.73956 67.0146 6.41718 65.5847 6.41718H61.0752V13.9396L62.835 18.5605V7.59927H65.4747C67.5645 7.59927 68.2244 8.56643 68.2244 9.96345C68.2244 11.4679 67.5645 12.5426 65.1448 12.5426H63.385V13.6172H66.2447C68.5544 13.6172 69.8743 11.8978 69.8743 10.0709C69.9843 8.78136 69.5443 7.81419 68.8844 7.27688Z" fill="white" fill-opacity="0.8"/>
<path d="M107.602 6.51874H105.732L101.992 16.9426L98.1429 6.51874H96.1631L100.673 18.7695H103.092L107.602 6.51874Z" fill="white" fill-opacity="0.8"/>
<path d="M84.3936 7.4859H88.6831V18.7695H90.9928V7.4859H95.2824V6.51874H84.3936V7.4859Z" fill="white" fill-opacity="0.8"/>
<path d="M16.1994 14.0529H18.6191V16.2022C18.1792 16.4171 17.2993 16.6321 16.4194 16.6321C13.7796 16.6321 12.8997 15.3425 12.8997 12.6559C12.8997 10.0768 13.7796 8.6798 16.4194 8.6798C17.8492 8.6798 18.7291 9.10965 19.389 9.96935L21.1489 8.35741C20.049 6.85293 18.0692 6.31561 16.3094 6.31561C12.2398 6.31561 10.04 8.46487 10.04 12.6559C10.04 16.847 12.0198 18.9962 16.3094 18.9962C18.2892 18.9962 20.159 18.4589 21.2588 17.8141V11.7962H16.1994V14.0529Z" fill="white" fill-opacity="0.8"/>
<path d="M3.66145 6.41718H0.801758V18.7754H9.71081V16.4112H3.66145V6.41718Z" fill="white" fill-opacity="0.8"/>
<path d="M57.1118 10.8257L58.7617 9.85856L56.8919 4.8078L55.792 7.27945L57.1118 10.8257Z" fill="#1999D6"/>
<path d="M58.7621 9.85468L57.1123 10.8218L57.8822 12.6487L60.302 14.0457L58.7621 9.85468Z" fill="#30BEC2"/>
<path d="M55.9033 14.1594L56.8932 14.9116L55.9033 15.5564L60.4129 19.1027L59.6429 17.0609L55.9033 14.1594Z" fill="#97C742"/>
<path d="M55.9016 14.1594L51.7221 17.1683L50.9521 19.1027L55.9016 15.5564L54.9117 14.9116L55.9016 14.1594Z" fill="#F68524"/>
<path d="M55.901 14.1594L54.9111 14.9116L55.901 15.5564L56.8909 14.9116L55.901 14.1594Z" fill="#9D7230"/>
<path d="M60.3016 14.0564L57.8818 12.6594L59.6416 17.0653L62.1714 19.1071L60.3016 14.0564Z" fill="#71C596"/>
<path d="M59.6436 17.0578L60.4135 19.0996H62.1733L59.6436 17.0578Z" fill="#38B24B"/>
<path d="M53.4825 13.0812L50.8428 14.6932L49.083 19.0992L51.7227 17.1648L53.4825 13.0812Z" fill="#F15C2A"/>
<path d="M49.083 19.1015H50.9528L51.7227 17.1672L49.083 19.1015Z" fill="#EF3B25"/>
<path d="M55.7904 7.27945L54.8005 4.8078L52.9307 9.64363L54.4705 10.5033L55.7904 7.27945Z" fill="#6E449B"/>
<path d="M52.9326 9.64374L50.8428 14.6945L53.4825 13.0825L54.4724 10.5034L52.9326 9.64374Z" fill="#ED174F"/>
<path d="M56.8915 4.8078H54.8018L55.7917 7.27945L56.8915 4.8078Z" fill="#3C2E46"/>
</svg>
