<svg width="135" height="24" viewBox="0 0 135 24" fill="none" xmlns="http://www.w3.org/2000/svg">
<g clip-path="url(#clip0_1_29670)">
<path d="M69.6056 8.49687V16.0826L63.8958 11.8397L69.6056 8.49687Z" fill="#244A9A"/>
<path d="M58.2454 8.49687V16.0826L63.8938 11.8397L58.2454 8.49687Z" fill="#95A948"/>
<path d="M63.8981 0.910934L56.5305 5.21808H63.8981V0.910934Z" fill="#FFDE14"/>
<path d="M63.8958 0.910934L71.2633 5.21808H63.8958V0.910934Z" fill="#F0C3C0"/>
<path d="M63.8972 11.8406L56.5911 17.2406H63.8972V11.8406Z" fill="#D3D80E"/>
<path d="M63.8958 11.8406L71.2633 17.2406H63.8958V11.8406Z" fill="#2DAFE6"/>
<path d="M56.5911 17.2391H63.8972V22.5105L56.5911 17.2391Z" fill="#FBEF82"/>
<path d="M71.2633 17.2391H63.8958V22.5105L71.2633 17.2391Z" fill="#AFDFF9"/>
<path d="M56.5911 5.22343H63.9586V9.53058L56.5911 5.22343Z" fill="#F18825"/>
<path d="M71.2633 5.22343H63.8958V9.53058L71.2633 5.22343Z" fill="#E94287"/>
<path d="M71.2648 17.2449V5.22343L63.8972 9.53058L56.5911 5.22343V17.2449L58.2488 18.4663V8.502L63.8972 11.8449L69.6071 8.502V18.4663L71.2648 17.2449Z" fill="white" fill-opacity="0.8"/>
<path d="M92.9373 12.8795C93.5513 12.6223 94.1039 12.2366 94.5336 11.658C95.0248 11.0152 95.2704 10.1795 95.2704 9.27946C95.2704 8.70089 95.1476 8.12232 94.9634 7.67232C94.7792 7.15803 94.4722 6.77232 94.1039 6.3866C93.7355 6.06517 93.2443 5.74375 92.6917 5.55089C92.1392 5.35803 91.5252 5.29375 90.8498 5.29375H86.1223V18.5366H87.78V7.02946H90.8498C91.7708 7.02946 92.4462 7.22232 92.8759 7.60803C93.3057 7.99375 93.5513 8.57232 93.5513 9.27946C93.5513 10.0509 93.3057 10.5652 92.8759 10.9509C92.3848 11.3366 91.7094 11.5295 90.8498 11.5295H88.8238V13.2009H91.2796L93.6127 18.4723H95.4546L92.9373 12.8795Z" fill="white" fill-opacity="0.8"/>
<path d="M96.6868 5.34843V7.01986H100.493V18.527H102.151V7.01986H105.958V5.34843H96.6868Z" fill="white" fill-opacity="0.8"/>
<path d="M79.248 5.34843H77.8359L72.9856 18.527H74.7661L76.301 14.4127H80.9057L82.4407 18.527H84.1598L79.248 5.34843ZM76.8536 12.8699L78.5727 8.17701L80.2918 12.8699H76.8536Z" fill="white" fill-opacity="0.8"/>
<path d="M54.0704 13.3775C53.8862 12.9275 53.6406 12.5417 53.3337 12.2203C53.0267 11.8989 52.6583 11.6417 52.2285 11.3846C51.7987 11.1917 51.3076 10.9989 50.8164 10.9346L48.5447 10.6132C48.2991 10.5489 48.0536 10.5489 47.808 10.4203C47.6238 10.356 47.4396 10.2275 47.2554 10.0989C47.1326 9.97031 47.0098 9.77745 46.887 9.5846C46.8256 9.39174 46.7642 9.1346 46.7642 8.81317C46.7642 8.49174 46.8256 8.17031 46.9484 7.97745C47.0712 7.72031 47.2554 7.52745 47.4396 7.33459C47.6852 7.14174 47.9922 6.94888 48.2991 6.82031C48.6675 6.69174 49.0359 6.69174 49.4043 6.69174C49.8954 6.69174 50.3866 6.75602 50.755 6.94888C51.1234 7.07745 51.4304 7.3346 51.6759 7.59174C51.8601 7.7846 51.9829 7.97745 52.0443 8.2346C52.1057 8.42745 52.2285 8.68459 52.2285 9.00602L52.2899 9.32745H53.9476L53.8862 8.87745C53.8248 8.36317 53.7634 7.91317 53.5792 7.52745C53.395 7.14174 53.1495 6.82031 52.9039 6.49888C52.5355 6.04888 51.9829 5.66317 51.369 5.40602C50.755 5.14888 50.0796 5.02031 49.4043 5.02031C48.7903 5.02031 48.2377 5.14888 47.6852 5.34174C47.1326 5.5346 46.6414 5.85602 46.2117 6.24174C45.9047 6.56317 45.5977 6.94888 45.3521 7.33459C45.1065 7.7846 44.9837 8.29888 44.9837 8.87745C44.9837 9.39174 45.0451 9.90602 45.2293 10.2917C45.4135 10.6775 45.6591 11.0632 45.9661 11.3846C46.2731 11.706 46.6414 11.8989 47.0098 12.0917C47.3782 12.2846 47.808 12.3489 48.2991 12.4132L50.5094 12.7346C50.8164 12.7989 51.1234 12.8632 51.369 12.9917C51.6146 13.1203 51.7987 13.2489 51.9829 13.4417C52.1671 13.6346 52.2899 13.8275 52.3513 14.0203C52.4127 14.2132 52.4741 14.4703 52.4741 14.7275C52.4741 15.0489 52.4127 15.3703 52.2899 15.5632C52.1671 15.8203 52.0443 16.0132 51.8601 16.206C51.5532 16.4632 51.2462 16.656 50.8164 16.7846C50.3866 16.9132 49.8954 16.9775 49.4043 16.9775C48.9745 16.9775 48.4833 16.9132 48.1149 16.7203C47.6852 16.5917 47.3782 16.3346 47.0712 16.0775C46.887 15.8846 46.7028 15.6275 46.58 15.306C46.4572 15.0489 46.3344 14.7275 46.3344 14.406L46.2731 14.0203H44.554L44.6154 14.4703C44.6767 14.9846 44.7995 15.4989 44.9837 15.9489C45.1679 16.3989 45.4749 16.7846 45.7819 17.1703C46.2117 17.6846 46.7642 18.006 47.3782 18.2632C47.9922 18.5203 48.6675 18.6489 49.4043 18.6489C50.141 18.6489 50.8164 18.5203 51.4304 18.3275C52.0443 18.1346 52.5969 17.7489 53.0267 17.2989C53.3337 16.9775 53.5792 16.5917 53.7634 16.206C53.9476 15.756 54.0704 15.2417 54.0704 14.6632C54.316 14.2775 54.2546 13.8275 54.0704 13.3775Z" fill="white" fill-opacity="0.8"/>
<path d="M122.284 18.6009H123.389L128.239 5.29375H126.95L122.837 16.7366L118.6 5.29375H109.329V6.51518H113.32V18.6009H114.487V6.51518H117.802L122.284 18.6009Z" fill="white" fill-opacity="0.8"/>
<path d="M69.6056 8.502V18.4663L71.2633 17.2449V5.22343L63.8958 9.53058V11.8449L69.6056 8.502Z" fill="white" fill-opacity="0.8"/>
<path d="M7.47354 11.5212C6.67539 11.2641 6.4912 10.5569 6.4912 9.97834V9.78549C6.4912 8.69263 7.04377 8.11406 8.2103 8.11406H8.76287C9.68382 8.11406 10.2364 8.49977 10.2364 9.52834C10.2364 9.78549 10.1136 9.97834 9.80661 9.97834C9.49963 9.97834 9.37683 9.78549 9.37683 9.52834C9.37683 9.14263 9.13125 8.94977 8.76287 8.94977H8.2103C7.59634 8.94977 7.28935 9.20692 7.28935 9.78549V9.97834C7.28935 10.3641 7.53494 10.6212 7.78053 10.6855L9.37683 11.3283C10.0522 11.5855 10.4206 12.0998 10.4206 12.9355V13.2569C10.4206 14.3498 9.86801 14.9926 8.70147 14.9926H7.84192C6.92098 14.9926 6.36841 14.6069 6.36841 13.5783C6.36841 13.3212 6.4912 13.1283 6.79818 13.1283C7.10517 13.1283 7.22796 13.3212 7.22796 13.5783C7.22796 13.9641 7.47354 14.1569 7.84192 14.1569H8.76287C9.37683 14.1569 9.68382 13.8355 9.68382 13.2569V12.9355C9.68382 12.5498 9.49963 12.2926 9.25404 12.1641L7.47354 11.5212Z" fill="white" fill-opacity="0.8"/>
<path d="M13.4308 9.98125C14.3517 9.98125 14.9043 10.5598 14.9043 11.4598V14.4812C14.9043 14.7384 14.7815 14.9313 14.4745 14.9313H12.8168C11.9572 14.9313 11.4661 14.5455 11.4661 13.6455V12.9384C11.4661 12.0384 12.0186 11.6527 12.8168 11.6527H14.1061V11.4598C14.1061 11.0098 13.8605 10.817 13.4921 10.817H12.3256C12.08 10.817 11.8958 10.6884 11.8958 10.4312C11.8958 10.1741 12.08 10.0455 12.3256 10.0455H13.4308V9.98125ZM14.0447 14.0955V12.4241H12.7554C12.387 12.4241 12.2028 12.617 12.2028 12.9384V13.6455C12.2028 13.9027 12.387 14.1598 12.7554 14.1598H14.0447V14.0955Z" fill="white" fill-opacity="0.8"/>
<path d="M20.5487 11.717C20.5487 11.1384 20.3031 10.817 19.6892 10.817H19.198V14.6098C19.198 14.867 19.0752 15.0598 18.7682 15.0598C18.4612 15.0598 18.3384 14.867 18.3384 14.6098V10.817H16.9877V14.6098C16.9877 14.867 16.8649 15.0598 16.5579 15.0598C16.251 15.0598 16.1282 14.867 16.1282 14.6098V10.4313C16.1282 10.1741 16.251 9.98125 16.5579 9.98125H19.6892C20.7943 9.98125 21.3469 10.6241 21.3469 11.717V14.6098C21.3469 14.867 21.2241 15.0598 20.9171 15.0598C20.6101 15.0598 20.4873 14.867 20.4873 14.6098V11.717H20.5487Z" fill="white" fill-opacity="0.8"/>
<path d="M23.8695 14.9913C23.01 14.9913 22.5188 14.6699 22.5188 13.8341C22.5188 13.577 22.6416 13.3841 22.9486 13.3841C23.2556 13.3841 23.317 13.577 23.3783 13.8341C23.3783 14.027 23.5625 14.2199 23.9309 14.2199H24.6677C25.0975 14.2199 25.2202 13.9627 25.2202 13.7056V13.3841C25.2202 13.127 25.0975 13.0627 24.9133 12.9342L23.5011 12.5484C22.9486 12.3556 22.703 11.9699 22.703 11.3913V11.1341C22.703 10.2341 23.1942 9.84843 24.0537 9.84843H24.5449C25.4044 9.84843 25.8956 10.1699 25.8956 11.0056C25.8956 11.2627 25.8342 11.4556 25.4658 11.4556C25.1588 11.4556 25.0975 11.2627 25.0361 11.0056C25.0361 10.8127 24.8519 10.6199 24.5449 10.6199H24.0537C23.6239 10.6199 23.5011 10.877 23.5011 11.1341V11.3913C23.5011 11.5841 23.6239 11.7127 23.8081 11.8413L25.2202 12.227C25.7728 12.4199 26.0798 12.7413 26.0798 13.3841V13.7056C26.0798 14.6056 25.5886 14.9913 24.7291 14.9913H23.8695Z" fill="white" fill-opacity="0.8"/>
<path d="M27.8571 13.1913C27.8571 13.7699 28.1027 14.0913 28.7167 14.0913H29.8218V10.2984C29.8218 10.0413 29.9446 9.84843 30.2516 9.84843C30.5586 9.84843 30.6814 10.0413 30.6814 10.2984V14.477C30.6814 14.7341 30.5586 14.927 30.2516 14.927H28.7781C27.6115 14.927 27.1204 14.2841 27.1204 13.1913V10.2984C27.1204 10.0413 27.2432 9.84843 27.5501 9.84843C27.8571 9.84843 27.9799 10.0413 27.9799 10.2984V13.1913H27.8571Z" fill="white" fill-opacity="0.8"/>
<path d="M34.7337 11.717C34.7337 11.1384 34.4881 10.817 33.8741 10.817H32.769V14.6098C32.769 14.867 32.6462 15.0598 32.3392 15.0598C32.0322 15.0598 31.9094 14.867 31.9094 14.6098V10.4313C31.9094 10.1741 32.0322 9.98125 32.3392 9.98125H33.8127C34.9178 9.98125 35.4704 10.6241 35.4704 11.717V14.6098C35.4704 14.867 35.3476 15.0598 35.0406 15.0598C34.7337 15.0598 34.6109 14.867 34.6109 14.6098V11.717H34.7337Z" fill="white" fill-opacity="0.8"/>
<path d="M40.3211 15.4359C40.3211 16.4645 39.7686 17.3002 38.602 17.3002H37.6197C37.4355 17.3002 37.1899 17.1716 37.1899 16.9145C37.1899 16.6574 37.3741 16.5288 37.6197 16.5288H38.6634C39.2774 16.5288 39.5844 16.0788 39.5844 15.5002V14.9859H38.4792C37.3741 14.9859 36.8215 14.3431 36.8215 13.2502V11.9002C36.8215 10.8074 37.3741 10.0359 38.5406 10.0359H40.0141C40.3211 10.0359 40.4439 10.2288 40.4439 10.4859V15.4359H40.3211ZM38.4792 10.7431C37.8653 10.7431 37.6197 11.1931 37.6197 11.7716V13.1216C37.6197 13.7002 37.8653 14.0216 38.4792 14.0216H39.5844V10.7431H38.4792Z" fill="white" fill-opacity="0.8"/>
</g>
<defs>
<clipPath id="clip0_1_29670">
<rect width="122.4" height="21.6" fill="white" transform="translate(6.30005 1.2)"/>
</clipPath>
</defs>
</svg>
